<svg xmlns="http://www.w3.org/2000/svg" width="28" height="28" fill="none"><path fill="#396AFF" d="M22.995 8.383a5.81 5.81 0 0 0-5.801-5.758H8.75a.875.875 0 0 0-.875.735L4.882 22.129a.875.875 0 0 0 .202.7.876.876 0 0 0 .665.315h3.613L9.17 24.36a.875.875 0 0 0 .875 1.015h4.069a.875.875 0 0 0 .875-.726l.875-5.347h2.756a6.527 6.527 0 0 0 6.501-6.518v-.245a5.136 5.136 0 0 0-2.126-4.156ZM9.494 4.375h7.7a4.06 4.06 0 0 1 3.946 3.159 4.97 4.97 0 0 0-1.155-.131h-7.297a.875.875 0 0 0-.876.735l-.516 3.237a.886.886 0 0 0 1.75.28l.403-2.52h6.554c.419.002.834.082 1.224.236a5.662 5.662 0 0 1-5.6 4.979h-4.06a.875.875 0 0 0-.874.726l-1.068 6.318H6.772L9.494 4.375Zm13.877 8.409a4.777 4.777 0 0 1-4.751 4.768h-3.5a.875.875 0 0 0-.875.727l-.875 5.346h-2.31l.192-1.216 1.05-6.291h3.308a7.403 7.403 0 0 0 7.14-5.53c.406.569.623 1.251.621 1.95v.246Z"/></svg>